<svg id="visual" viewBox="0 0 960 300" width="960" height="300" xmlns="http://www.w3.org/2000/svg" xmlns:xlink="http://www.w3.org/1999/xlink" version="1.1"><rect x="0" y="0" width="960" height="300" fill="#202731"></rect><path d="M0 167L16 168.3C32 169.7 64 172.3 96 176.7C128 181 160 187 192 187.3C224 187.7 256 182.3 288 179.2C320 176 352 175 384 176.7C416 178.3 448 182.7 480 186.2C512 189.7 544 192.3 576 194.7C608 197 640 199 672 195.5C704 192 736 183 768 182.2C800 181.3 832 188.7 864 192.7C896 196.7 928 197.3 944 197.7L960 198L960 301L944 301C928 301 896 301 864 301C832 301 800 301 768 301C736 301 704 301 672 301C640 301 608 301 576 301C544 301 512 301 480 301C448 301 416 301 384 301C352 301 320 301 288 301C256 301 224 301 192 301C160 301 128 301 96 301C64 301 32 301 16 301L0 301Z" fill="#e7e8d6"></path><path d="M0 222L16 219.7C32 217.3 64 212.7 96 210.7C128 208.7 160 209.3 192 206.7C224 204 256 198 288 200.2C320 202.3 352 212.7 384 213.7C416 214.7 448 206.3 480 202.2C512 198 544 198 576 199.2C608 200.3 640 202.7 672 202.2C704 201.7 736 198.3 768 198.8C800 199.3 832 203.7 864 208.3C896 213 928 218 944 220.5L960 223L960 301L944 301C928 301 896 301 864 301C832 301 800 301 768 301C736 301 704 301 672 301C640 301 608 301 576 301C544 301 512 301 480 301C448 301 416 301 384 301C352 301 320 301 288 301C256 301 224 301 192 301C160 301 128 301 96 301C64 301 32 301 16 301L0 301Z" fill="#b9b9ac"></path><path d="M0 220L16 220.5C32 221 64 222 96 223.8C128 225.7 160 228.3 192 226.8C224 225.3 256 219.7 288 221.5C320 223.3 352 232.7 384 232.2C416 231.7 448 221.3 480 218.8C512 216.3 544 221.7 576 224.8C608 228 640 229 672 229.5C704 230 736 230 768 230.8C800 231.7 832 233.3 864 231.3C896 229.3 928 223.7 944 220.8L960 218L960 301L944 301C928 301 896 301 864 301C832 301 800 301 768 301C736 301 704 301 672 301C640 301 608 301 576 301C544 301 512 301 480 301C448 301 416 301 384 301C352 301 320 301 288 301C256 301 224 301 192 301C160 301 128 301 96 301C64 301 32 301 16 301L0 301Z" fill="#8c8c84"></path><path d="M0 265L16 264.7C32 264.3 64 263.7 96 259.7C128 255.7 160 248.3 192 246.8C224 245.3 256 249.7 288 251.2C320 252.7 352 251.3 384 249.8C416 248.3 448 246.7 480 248.2C512 249.7 544 254.3 576 254C608 253.7 640 248.3 672 246.3C704 244.3 736 245.7 768 248.7C800 251.7 832 256.3 864 255C896 253.7 928 246.3 944 242.7L960 239L960 301L944 301C928 301 896 301 864 301C832 301 800 301 768 301C736 301 704 301 672 301C640 301 608 301 576 301C544 301 512 301 480 301C448 301 416 301 384 301C352 301 320 301 288 301C256 301 224 301 192 301C160 301 128 301 96 301C64 301 32 301 16 301L0 301Z" fill="#62625e"></path><path d="M0 269L16 271.8C32 274.7 64 280.3 96 283.3C128 286.3 160 286.7 192 282.8C224 279 256 271 288 267.5C320 264 352 265 384 267.3C416 269.7 448 273.3 480 273.5C512 273.7 544 270.3 576 270.7C608 271 640 275 672 275C704 275 736 271 768 271.7C800 272.3 832 277.7 864 279.2C896 280.7 928 278.3 944 277.2L960 276L960 301L944 301C928 301 896 301 864 301C832 301 800 301 768 301C736 301 704 301 672 301C640 301 608 301 576 301C544 301 512 301 480 301C448 301 416 301 384 301C352 301 320 301 288 301C256 301 224 301 192 301C160 301 128 301 96 301C64 301 32 301 16 301L0 301Z" fill="#3b3b3b"></path></svg>