<svg id="visual" viewBox="0 0 960 300" width="960" height="300" xmlns="http://www.w3.org/2000/svg" xmlns:xlink="http://www.w3.org/1999/xlink" version="1.1"><rect x="0" y="0" width="960" height="300" fill="#202731"></rect><path d="M0 170L16 169.7C32 169.3 64 168.7 96 173C128 177.3 160 186.7 192 187.8C224 189 256 182 288 176.8C320 171.7 352 168.3 384 169.2C416 170 448 175 480 179.8C512 184.7 544 189.3 576 191.5C608 193.7 640 193.3 672 193.3C704 193.3 736 193.7 768 190.5C800 187.3 832 180.7 864 176.2C896 171.7 928 169.3 944 168.2L960 167L960 301L944 301C928 301 896 301 864 301C832 301 800 301 768 301C736 301 704 301 672 301C640 301 608 301 576 301C544 301 512 301 480 301C448 301 416 301 384 301C352 301 320 301 288 301C256 301 224 301 192 301C160 301 128 301 96 301C64 301 32 301 16 301L0 301Z" fill="#e7e8d6"></path><path d="M0 209L16 211.7C32 214.3 64 219.7 96 217.7C128 215.7 160 206.3 192 204.2C224 202 256 207 288 206C320 205 352 198 384 199.8C416 201.7 448 212.3 480 217.8C512 223.3 544 223.7 576 220C608 216.3 640 208.7 672 205.8C704 203 736 205 768 208C800 211 832 215 864 212.3C896 209.7 928 200.3 944 195.7L960 191L960 301L944 301C928 301 896 301 864 301C832 301 800 301 768 301C736 301 704 301 672 301C640 301 608 301 576 301C544 301 512 301 480 301C448 301 416 301 384 301C352 301 320 301 288 301C256 301 224 301 192 301C160 301 128 301 96 301C64 301 32 301 16 301L0 301Z" fill="#b9b9ac"></path><path d="M0 242L16 238.3C32 234.7 64 227.3 96 227.5C128 227.7 160 235.3 192 237.2C224 239 256 235 288 231.8C320 228.7 352 226.3 384 229C416 231.7 448 239.3 480 239C512 238.7 544 230.3 576 229.3C608 228.3 640 234.7 672 234.3C704 234 736 227 768 227.8C800 228.7 832 237.3 864 238C896 238.7 928 231.3 944 227.7L960 224L960 301L944 301C928 301 896 301 864 301C832 301 800 301 768 301C736 301 704 301 672 301C640 301 608 301 576 301C544 301 512 301 480 301C448 301 416 301 384 301C352 301 320 301 288 301C256 301 224 301 192 301C160 301 128 301 96 301C64 301 32 301 16 301L0 301Z" fill="#8c8c84"></path><path d="M0 244L16 245.3C32 246.7 64 249.3 96 251.2C128 253 160 254 192 253.2C224 252.3 256 249.7 288 250.8C320 252 352 257 384 258.2C416 259.3 448 256.7 480 257.3C512 258 544 262 576 260.5C608 259 640 252 672 248.8C704 245.7 736 246.3 768 244.8C800 243.3 832 239.7 864 242.5C896 245.3 928 254.7 944 259.3L960 264L960 301L944 301C928 301 896 301 864 301C832 301 800 301 768 301C736 301 704 301 672 301C640 301 608 301 576 301C544 301 512 301 480 301C448 301 416 301 384 301C352 301 320 301 288 301C256 301 224 301 192 301C160 301 128 301 96 301C64 301 32 301 16 301L0 301Z" fill="#62625e"></path><path d="M0 276L16 274.3C32 272.7 64 269.3 96 271.2C128 273 160 280 192 279.3C224 278.7 256 270.3 288 268.5C320 266.7 352 271.3 384 274.8C416 278.3 448 280.7 480 278C512 275.3 544 267.7 576 266.2C608 264.7 640 269.3 672 269.7C704 270 736 266 768 265.2C800 264.3 832 266.7 864 270.3C896 274 928 279 944 281.5L960 284L960 301L944 301C928 301 896 301 864 301C832 301 800 301 768 301C736 301 704 301 672 301C640 301 608 301 576 301C544 301 512 301 480 301C448 301 416 301 384 301C352 301 320 301 288 301C256 301 224 301 192 301C160 301 128 301 96 301C64 301 32 301 16 301L0 301Z" fill="#3b3b3b"></path></svg>