<svg id="visual" viewBox="0 0 960 300" width="960" height="300" xmlns="http://www.w3.org/2000/svg" xmlns:xlink="http://www.w3.org/1999/xlink" version="1.1"><rect x="0" y="0" width="960" height="300" fill="#202731"></rect><path d="M0 203L16 200.8C32 198.7 64 194.3 96 188.3C128 182.3 160 174.7 192 176.5C224 178.3 256 189.7 288 189.8C320 190 352 179 384 174.7C416 170.3 448 172.7 480 174.7C512 176.7 544 178.3 576 183.2C608 188 640 196 672 193.2C704 190.3 736 176.7 768 170C800 163.3 832 163.7 864 166C896 168.3 928 172.7 944 174.8L960 177L960 301L944 301C928 301 896 301 864 301C832 301 800 301 768 301C736 301 704 301 672 301C640 301 608 301 576 301C544 301 512 301 480 301C448 301 416 301 384 301C352 301 320 301 288 301C256 301 224 301 192 301C160 301 128 301 96 301C64 301 32 301 16 301L0 301Z" fill="#e7e8d6"></path><path d="M0 210L16 210.2C32 210.3 64 210.7 96 210.2C128 209.7 160 208.3 192 205.3C224 202.3 256 197.7 288 196C320 194.3 352 195.7 384 195C416 194.3 448 191.7 480 190.5C512 189.3 544 189.7 576 191C608 192.3 640 194.7 672 199.3C704 204 736 211 768 209.8C800 208.7 832 199.3 864 200.3C896 201.3 928 212.7 944 218.3L960 224L960 301L944 301C928 301 896 301 864 301C832 301 800 301 768 301C736 301 704 301 672 301C640 301 608 301 576 301C544 301 512 301 480 301C448 301 416 301 384 301C352 301 320 301 288 301C256 301 224 301 192 301C160 301 128 301 96 301C64 301 32 301 16 301L0 301Z" fill="#b9b9ac"></path><path d="M0 233L16 232.2C32 231.3 64 229.7 96 231.5C128 233.3 160 238.7 192 240.3C224 242 256 240 288 235.8C320 231.7 352 225.3 384 225.8C416 226.3 448 233.7 480 235.7C512 237.7 544 234.3 576 231.8C608 229.3 640 227.7 672 224.8C704 222 736 218 768 218.5C800 219 832 224 864 227.3C896 230.7 928 232.3 944 233.2L960 234L960 301L944 301C928 301 896 301 864 301C832 301 800 301 768 301C736 301 704 301 672 301C640 301 608 301 576 301C544 301 512 301 480 301C448 301 416 301 384 301C352 301 320 301 288 301C256 301 224 301 192 301C160 301 128 301 96 301C64 301 32 301 16 301L0 301Z" fill="#8c8c84"></path><path d="M0 248L16 247.3C32 246.7 64 245.3 96 245.2C128 245 160 246 192 248.8C224 251.7 256 256.3 288 256.3C320 256.3 352 251.7 384 251.3C416 251 448 255 480 257.8C512 260.7 544 262.3 576 259.2C608 256 640 248 672 246.2C704 244.3 736 248.7 768 249.5C800 250.3 832 247.7 864 249.5C896 251.3 928 257.7 944 260.8L960 264L960 301L944 301C928 301 896 301 864 301C832 301 800 301 768 301C736 301 704 301 672 301C640 301 608 301 576 301C544 301 512 301 480 301C448 301 416 301 384 301C352 301 320 301 288 301C256 301 224 301 192 301C160 301 128 301 96 301C64 301 32 301 16 301L0 301Z" fill="#62625e"></path><path d="M0 289L16 288.5C32 288 64 287 96 284.7C128 282.3 160 278.7 192 277.3C224 276 256 277 288 277.8C320 278.7 352 279.3 384 280C416 280.7 448 281.3 480 278.2C512 275 544 268 576 266.3C608 264.7 640 268.3 672 272.5C704 276.7 736 281.3 768 281.5C800 281.7 832 277.3 864 277.7C896 278 928 283 944 285.5L960 288L960 301L944 301C928 301 896 301 864 301C832 301 800 301 768 301C736 301 704 301 672 301C640 301 608 301 576 301C544 301 512 301 480 301C448 301 416 301 384 301C352 301 320 301 288 301C256 301 224 301 192 301C160 301 128 301 96 301C64 301 32 301 16 301L0 301Z" fill="#3b3b3b"></path></svg>